<svg viewBox="0 0 401.77 116.29" xmlns="http://www.w3.org/2000/svg"><g fill="#ff2d20" fill-rule="evenodd"><path d="m154.75 26.88v52.43h19v9h-29.1v-61.43zm54.62 26.12v-5.57h9.57v40.93h-9.57v-5.54a13.16 13.16 0 0 1 -5.49 4.83 16 16 0 0 1 -7.15 1.76 20.78 20.78 0 0 1 -8.52-1.71 20 20 0 0 1 -6.63-4.7 21.77 21.77 0 0 1 -4.3-6.85 22 22 0 0 1 -1.54-8.26 22.37 22.37 0 0 1 1.53-8.21 21.58 21.58 0 0 1 4.31-6.89 19.76 19.76 0 0 1 6.63-4.7 20.78 20.78 0 0 1 8.52-1.71 16 16 0 0 1 7.15 1.75 13.22 13.22 0 0 1 5.49 4.87zm-.88 19.94a14.67 14.67 0 0 0 0-10 12.81 12.81 0 0 0 -2.49-4.18 12.06 12.06 0 0 0 -3.79-2.76 11.51 11.51 0 0 0 -5-1.06 11.3 11.3 0 0 0 -4.88 1.06 11.87 11.87 0 0 0 -6.18 6.94 14.67 14.67 0 0 0 -.84 5 15.13 15.13 0 0 0 .83 5 12.17 12.17 0 0 0 2.42 4.06 12 12 0 0 0 3.78 2.81 11.22 11.22 0 0 0 4.91 1 11.51 11.51 0 0 0 5-1 12.06 12.06 0 0 0 3.75-2.81 12.81 12.81 0 0 0 2.49-4.1zm18 15.46v-40.97h26v9.42h-16.42v31.51zm60.69-35.4v-5.57h9.58v40.93h-9.58v-5.54a13.1 13.1 0 0 1 -5.49 4.83 16 16 0 0 1 -7.15 1.76 20.81 20.81 0 0 1 -8.54-1.71 20 20 0 0 1 -6.63-4.7 21.77 21.77 0 0 1 -4.3-6.85 22.79 22.79 0 0 1 0-16.47 21.38 21.38 0 0 1 4.3-6.89 19.76 19.76 0 0 1 6.63-4.7 20.81 20.81 0 0 1 8.52-1.71 16 16 0 0 1 7.15 1.75 13.1 13.1 0 0 1 5.51 4.87zm-.87 19.94a14.83 14.83 0 0 0 0-10 12.84 12.84 0 0 0 -2.46-4.13 11.91 11.91 0 0 0 -3.85-2.81 11.58 11.58 0 0 0 -5-1.06 11.24 11.24 0 0 0 -4.85 1.06 11.85 11.85 0 0 0 -6.15 6.89 14.71 14.71 0 0 0 -.84 5 14.89 14.89 0 0 0 .84 5 11.85 11.85 0 0 0 6.19 6.94 11.24 11.24 0 0 0 4.92 1 11.57 11.57 0 0 0 5-1 11.91 11.91 0 0 0 3.74-2.83 12.84 12.84 0 0 0 2.46-4.1zm48.82-25.47h9.7l-15.71 40.89h-12l-15.74-40.93h9.69l12 31.34zm30.58-1c13 0 21.92 11.55 20.25 25.07h-31.75c0 3.53 3.56 10.36 12 10.36 7.28 0 12.16-6.41 12.16-6.41l6.47 5c-5.79 6.17-10.52 9-17.93 9-13.25 0-22.23-8.38-22.23-21.52a21.18 21.18 0 0 1 21-21.51zm-11.48 18h22.94c-.07-.92-1.31-10.47-11.54-10.47s-11.33 9.55-11.4 10.34zm38 24v-61.59h9.57v61.48z"/><path d="m112.9 26.31a1.84 1.84 0 0 1 .06.47v25a1.79 1.79 0 0 1 -.91 1.57l-21 12.07v23.9a1.81 1.81 0 0 1 -.91 1.58l-43.68 25.15a1.79 1.79 0 0 1 -.32.13h-.13a1.83 1.83 0 0 1 -.93 0 .84.84 0 0 1 -.14-.06 1.57 1.57 0 0 1 -.3-.12l-43.73-25.13a1.81 1.81 0 0 1 -.91-1.58v-74.88a2 2 0 0 1 .06-.48l.07-.15a1.36 1.36 0 0 1 .11-.28c0-.06.09-.11.13-.16a1.77 1.77 0 0 1 .16-.22 1.18 1.18 0 0 1 .18-.12 1 1 0 0 1 .2-.16l21.87-12.6a1.85 1.85 0 0 1 1.82 0l21.86 12.59a1.08 1.08 0 0 1 .2.16 1.18 1.18 0 0 1 .18.13 1.77 1.77 0 0 1 .16.22 1 1 0 0 1 .13.16 2.36 2.36 0 0 1 .12.28c0 .05 0 .1.06.15a2 2 0 0 1 .06.48v46.77l18.22-10.49v-23.91a1.84 1.84 0 0 1 .06-.47c0-.06 0-.1.07-.16a1.69 1.69 0 0 1 .12-.28 1 1 0 0 1 .12-.16 1.66 1.66 0 0 1 .16-.21l.18-.14.2-.16 21.87-12.58a1.8 1.8 0 0 1 1.82 0l21.86 12.58c.08.05.14.11.21.16l.17.14a1.73 1.73 0 0 1 .17.21 1 1 0 0 1 .12.16c0 .09.08.19.12.28a1 1 0 0 1 .06.16zm-3.58 24.38v-20.76l-7.65 4.41-10.57 6.08v20.76zm-21.86 37.55v-20.77l-10.4 5.94-29.69 16.94v21zm-83.82-70.68v70.68l40.09 23.08v-21l-20.94-11.82a1.39 1.39 0 0 1 -.19-.15 1.18 1.18 0 0 1 -.18-.13 1.49 1.49 0 0 1 -.15-.2 2.09 2.09 0 0 1 -.14-.17 1.6 1.6 0 0 1 -.1-.23.84.84 0 0 1 -.08-.2 1.26 1.26 0 0 1 0-.27 1.62 1.62 0 0 1 0-.2v-48.9l-10.65-6.05-7.66-4.4zm20.05-13.64-18.22 10.49 18.21 10.49 18.22-10.49-18.22-10.49zm9.47 65.44 10.57-6.08v-45.72l-7.65 4.44-10.57 6.05v45.72zm56.12-53.06-18.22 10.48 18.22 10.49 18.21-10.49zm-1.82 24.12-10.57-6.08-7.65-4.41v20.76l10.56 6.09 7.66 4.4zm-41.91 46.78 26.71-15.2 13.36-7.62-18.2-10.53-21 12.06-19.1 11z"/></g></svg>