<svg height="1000" width="1000" xmlns="http://www.w3.org/2000/svg" xmlns:xlink="http://www.w3.org/1999/xlink"><clipPath id="a"><rect height="1000" rx="500" width="1000"/></clipPath><g clip-path="url(#a)"><path d="m0 0h1000v1000h-1000z" fill="#fff"/><svg height="62" transform="matrix(2.90909091 0 0 2.90909091 100 409.818182)" version="1.1" width="275" xmlns="http://www.w3.org/2000/svg" xmlns:xlink="http://www.w3.org/1999/xlink"><svg fill="none" height="62" viewBox="0 0 275 62" width="275" xmlns="http://www.w3.org/2000/svg"><path d="m31.0971 11.5866 5.4737 8.6502-25.7423 15.0387 25.7423 14.761-5.672 8.928-30.8988-19.2051v-8.8884zm54.4286 46.1478c-1.6395 1.0581-3.6227 1.9576-5.9497 2.6982-2.327.7407-4.9449 1.1111-7.8536 1.1111-5.5002 0-9.5856-1.402-12.2564-4.2061-2.6707-2.8305-4.0061-6.6662-4.0061-11.5072v-19.1258h-8.8452v-8.6502h8.8452v-9.1264l12.534-1.50784v10.63424h13.5653l-1.2296 8.6502h-12.3357v19.1258c0 2.0898.476 3.5844 1.428 4.4838.9519.8995 2.4724 1.3492 4.5614 1.3492 1.4808 0 2.8294-.172 4.0458-.5159 1.2428-.3703 2.3534-.8333 3.3318-1.3888zm36.4613-57.7344c3.067 0 5.777.251307 8.131.753923 2.353.476157 4.456 1.111037 6.307 1.904637l-3.451 8.17404c-1.455-.5555-2.949-.95228-4.482-1.19036-1.534-.26453-3.055-.3968-4.562-.3968-2.485 0-4.27.44971-5.355 1.34916-1.057.8994-1.586 2.394-1.586 4.4838v5.6346h13.724l-1.388 8.6899h-12.336v30.7917h-12.455v-30.7917h-8.8451v-8.6899h8.8451v-6.1108c0-2.7776.661-5.26417 1.983-7.4598 1.323-2.19562 3.279-3.92832 5.871-5.19808 2.591-1.296213 5.791-1.94432 9.599-1.94432zm56.213 48.0525c0 1.5872.211 2.7379.634 3.4521.45.7143 1.164 1.2566 2.142 1.6269l-2.578 8.2535c-2.486-.2381-4.588-.7804-6.307-1.6269-1.692-.873-3.027-2.1824-4.006-3.9283-1.613 1.9311-3.675 3.3728-6.187 4.3251-2.513.9259-5.078 1.3888-7.695 1.3888-4.337 0-7.801-1.2301-10.393-3.6903-2.565-2.4866-3.847-5.6742-3.847-9.5628 0-4.5765 1.785-8.108 5.355-10.5946 3.596-2.4866 8.647-3.7299 15.152-3.7299h5.672v-1.5872c0-2.1956-.714-3.8225-2.142-4.8807-1.402-1.0581-3.464-1.5872-6.188-1.5872-1.348 0-3.081.1984-5.196.5952-2.115.3704-4.231.9127-6.346 1.6269l-2.896-8.3328c2.724-1.0317 5.553-1.812 8.488-2.3411 2.962-.5291 5.606-.7936 7.933-.7936 6.267 0 10.895 1.283 13.883 3.849 3.014 2.5395 4.522 6.2165 4.522 11.031zm-19.674 4.5235c1.349 0 2.763-.3968 4.244-1.1904 1.481-.82 2.605-1.9708 3.372-3.4522v-6.8249h-3.094c-3.491 0-6.056.5423-7.695 1.6269-1.64 1.0581-2.459 2.6188-2.459 4.6822 0 1.6137.489 2.8834 1.467 3.8093 1.005.8994 2.393 1.3491 4.165 1.3491zm41.181.119c0-1.6136.397-3.0818 1.19-4.4044.793-1.3492 1.864-2.4205 3.213-3.2141 1.348-.8201 2.829-1.2301 4.442-1.2301 1.64 0 3.121.41 4.443 1.2301 1.348.7936 2.419 1.8649 3.213 3.2141.793 1.3226 1.19 2.7908 1.19 4.4044 0 1.5872-.397 3.0554-1.19 4.4045-.794 1.3491-1.865 2.4205-3.213 3.2141-1.322.8201-2.803 1.2301-4.443 1.2301-1.613 0-3.094-.41-4.442-1.2301-1.349-.7936-2.42-1.865-3.213-3.2141s-1.19-2.8173-1.19-4.4045zm43.679-41.1084 31.018 19.2051v8.9677l-30.899 19.2051-5.672-8.5312 25.782-15.1578-25.782-14.6816z" fill="#ff79c6"/></svg></svg></g></svg>