<svg fill="none" height="109" viewBox="0 0 451 109" width="451" xmlns="http://www.w3.org/2000/svg" xmlns:xlink="http://www.w3.org/1999/xlink"><filter id="a" color-interpolation-filters="sRGB" filterUnits="userSpaceOnUse" height="107.264" width="450.758" x=".145996" y=".912109"><feFlood flood-opacity="0" result="BackgroundImageFix"/><feColorMatrix in="SourceAlpha" result="hardAlpha" type="matrix" values="0 0 0 0 0 0 0 0 0 0 0 0 0 0 0 0 0 0 127 0"/><feOffset dy="4"/><feGaussianBlur stdDeviation="2"/><feComposite in2="hardAlpha" operator="out"/><feColorMatrix type="matrix" values="0 0 0 0 0 0 0 0 0 0 0 0 0 0 0 0 0 0 0.25 0"/><feBlend in2="BackgroundImageFix" mode="normal" result="effect1_dropShadow_190_6"/><feBlend in="SourceGraphic" in2="effect1_dropShadow_190_6" mode="normal" result="shape"/></filter><g filter="url(#a)"><path d="m54.322 19.6 8.832 13.952-41.536 24.256 41.536 23.808-9.152 14.4-49.856-30.976v-14.336zm87.822 74.432c-2.645 1.7067-5.845 3.1573-9.6 4.352s-7.979 1.792-12.672 1.792c-8.875 0-15.467-2.2613-19.776-6.784-4.3093-4.5653-6.464-10.752-6.464-18.56v-30.848h-14.272v-13.952h14.272v-14.72l20.224-2.432v17.152h21.888l-1.984 13.952h-19.904v30.848c0 3.3707.768 5.7813 2.304 7.232s3.989 2.176 7.36 2.176c2.389 0 4.565-.2773 6.528-.832 2.005-.5973 3.797-1.344 5.376-2.24zm58.83-93.120005c4.949 0 9.323.405335 13.12 1.216005 3.797.768 7.189 1.792 10.176 3.072l-5.568 13.184c-2.347-.896-4.757-1.536-7.232-1.92-2.475-.4267-4.928-.64-7.36-.64-4.011 0-6.891.7253-8.64 2.176-1.707 1.4507-2.56 3.8613-2.56 7.232v9.088h22.144l-2.24 14.016h-19.904v49.664h-20.096v-49.664h-14.272v-14.016h14.272v-9.856c0-4.48 1.067-8.4907 3.2-12.032 2.133-3.54134 5.291-6.336 9.472-8.384 4.181-2.09067 9.344-3.136005 15.488-3.136005zm90.702 77.504005c0 2.56.341 4.416 1.024 5.568.725 1.152 1.877 2.0267 3.456 2.624l-4.16 13.312c-4.011-.384-7.403-1.2587-10.176-2.624-2.731-1.408-4.885-3.52-6.464-6.336-2.603 3.1147-5.931 5.44-9.984 6.976-4.053 1.4933-8.192 2.24-12.416 2.24-6.997 0-12.587-1.984-16.768-5.952-4.139-4.0107-6.208-9.152-6.208-15.424 0-7.3813 2.88-13.0773 8.64-17.088 5.803-4.0107 13.952-6.016 24.448-6.016h9.152v-2.56c0-3.5413-1.152-6.1653-3.456-7.872-2.261-1.7067-5.589-2.56-9.984-2.56-2.176 0-4.971.32-8.384.96-3.413.5973-6.827 1.472-10.24 2.624l-4.672-13.44c4.395-1.664 8.96-2.9227 13.696-3.776 4.779-.8533 9.045-1.28 12.8-1.28 10.112 0 17.579 2.0693 22.4 6.208 4.864 4.096 7.296 10.0267 7.296 17.792zm-31.744 7.296c2.176 0 4.459-.64 6.848-1.92 2.389-1.3227 4.203-3.1787 5.44-5.568v-11.008h-4.992c-5.632 0-9.771.8747-12.416 2.624-2.645 1.7067-3.968 4.224-3.968 7.552 0 2.6027.789 4.6507 2.368 6.144 1.621 1.4507 3.861 2.176 6.72 2.176zm66.446.192c0-2.6027.64-4.9707 1.92-7.104 1.28-2.176 3.008-3.904 5.184-5.184 2.176-1.3227 4.565-1.984 7.168-1.984 2.645 0 5.035.6613 7.168 1.984 2.176 1.28 3.904 3.008 5.184 5.184 1.28 2.1333 1.92 4.5013 1.92 7.104 0 2.56-.64 4.928-1.92 7.104s-3.008 3.904-5.184 5.184c-2.133 1.3227-4.523 1.984-7.168 1.984-2.603 0-4.992-.6613-7.168-1.984-2.176-1.28-3.904-3.008-5.184-5.184s-1.92-4.544-1.92-7.104zm70.478-66.304 50.048 30.976v14.464l-49.856 30.976-9.152-13.76 41.6-24.448-41.6-23.68z" fill="#f880c0"/></g></svg>