<svg viewBox="0 0 291.85 63.52" xmlns="http://www.w3.org/2000/svg"><path d="m117.1 36.57-5.1-13.7a.64.64 0 0 0 -1.2 0l-5.08 13.7a.63.63 0 0 0 .38.82.54.54 0 0 0 .22 0h10.18a.64.64 0 0 0 .64-.64.54.54 0 0 0 0-.22m2.35 7.69h-16.1a.64.64 0 0 0 -.6.42l-3.17 8.56a.62.62 0 0 1 -.6.42h-7a.63.63 0 0 1 -.64-.64.67.67 0 0 1 0-.24l16-39.92a.64.64 0 0 1 .6-.41h6.66a.65.65 0 0 1 .6.41l16 39.92a.65.65 0 0 1 -.36.84.67.67 0 0 1 -.24 0h-7a.65.65 0 0 1 -.61-.42l-3.16-8.52a.64.64 0 0 0 -.6-.42m15.19-17.83h6a.63.63 0 0 1 .64.64v25.97a.63.63 0 0 1 -.64.64h-6a.64.64 0 0 1 -.46-.64v-25.93a.65.65 0 0 1 .65-.65m28.35 6.31a.65.65 0 0 1 -.65.64h-.18q-4.41 0-6.47 2.12c-1.38 1.41-2.06 3.75-2.06 7v10.51a.64.64 0 0 1 -.65.64h-5.89a.64.64 0 0 1 -.65-.64v-25.93a.65.65 0 0 1 .65-.65h5.83a.65.65 0 0 1 .65.65v5.12h.12a9.64 9.64 0 0 1 3.3-4.88 9.2 9.2 0 0 1 5.65-1.71h.3v7.13zm16.28-.24a.65.65 0 0 0 -.65.64v10.78a3.49 3.49 0 0 0 .65 2.36 3 3 0 0 0 2.24.7h.59a.65.65 0 0 1 .64.65v5.38a.64.64 0 0 1 -.64.64h-2.54a8.38 8.38 0 0 1 -6.06-2q-2.11-2-2.12-6v-12.51a.64.64 0 0 0 -.64-.64h-3.75a.64.64 0 0 1 -.64-.65v-4.77a.64.64 0 0 1 .64-.65h3.72a.64.64 0 0 0 .64-.64v-9.6a.65.65 0 0 1 .64-.65h6a.65.65 0 0 1 .64.65v9.6a.64.64 0 0 0 .65.64h4.3a.64.64 0 0 1 .64.65v4.78a.64.64 0 0 1 -.64.64zm27.26 13.07a7.69 7.69 0 0 0 2-5.54 7.68 7.68 0 0 0 -2-5.53 7.76 7.76 0 0 0 -10.66 0 7.68 7.68 0 0 0 -2 5.53 7.69 7.69 0 0 0 2 5.54 7.76 7.76 0 0 0 10.66 0m-13.8 7.24a12.17 12.17 0 0 1 -4.74-5 16.4 16.4 0 0 1 -1.73-7.8 16.39 16.39 0 0 1 1.73-7.8 12.17 12.17 0 0 1 4.74-5 13.09 13.09 0 0 1 6.6-1.71 11.15 11.15 0 0 1 5.44 1.24 9.42 9.42 0 0 1 3.62 3.47h.12v-3.13a.65.65 0 0 1 .64-.65h5.9a.65.65 0 0 1 .64.65v25.93a.64.64 0 0 1 -.64.64h-5.9a.64.64 0 0 1 -.64-.64v-3.2h-.12a9.42 9.42 0 0 1 -3.62 3.47 11.27 11.27 0 0 1 -5.44 1.24 13.09 13.09 0 0 1 -6.6-1.71m47.48-7.24a7.69 7.69 0 0 0 2-5.54 7.68 7.68 0 0 0 -2-5.53 7.76 7.76 0 0 0 -10.66 0 7.68 7.68 0 0 0 -2 5.53 7.69 7.69 0 0 0 2 5.54 7.76 7.76 0 0 0 10.66 0m-8.95 7.71a9.42 9.42 0 0 1 -3.62-3.47h-.12v3.2a.64.64 0 0 1 -.64.64h-6a.64.64 0 0 1 -.64-.64v-39.94a.65.65 0 0 1 .64-.65h6a.65.65 0 0 1 .64.65v17.19h.12a9.42 9.42 0 0 1 3.62-3.47 11.17 11.17 0 0 1 5.45-1.24 13.08 13.08 0 0 1 6.59 1.71 12.17 12.17 0 0 1 4.74 5 16.39 16.39 0 0 1 1.74 7.8 16.4 16.4 0 0 1 -1.74 7.81 12.17 12.17 0 0 1 -4.74 5 13.08 13.08 0 0 1 -6.59 1.71 11.17 11.17 0 0 1 -5.45-1.24m28.55.35h-6a.64.64 0 0 1 -.64-.64v-39.98a.65.65 0 0 1 .64-.65h6a.65.65 0 0 1 .64.65v39.94a.64.64 0 0 1 -.64.64m14-20.9a5.78 5.78 0 0 0 -2 3.34.65.65 0 0 0 .63.79h11.33a.65.65 0 0 0 .64-.74 5.36 5.36 0 0 0 -1.77-3.3 6.5 6.5 0 0 0 -4.39-1.44 7 7 0 0 0 -4.44 1.35m14.51-3.38q3.48 3.8 3.48 10.74v.77a.65.65 0 0 1 -.65.65h-18.89a.64.64 0 0 0 -.64.65.34.34 0 0 0 0 .1 6.6 6.6 0 0 0 2.28 4.1 8 8 0 0 0 5.27 1.74 11.08 11.08 0 0 0 7.6-3.2.63.63 0 0 1 .95.11l2.9 4.15a.66.66 0 0 1 -.1.85 20.77 20.77 0 0 1 -4.7 3.12 14.85 14.85 0 0 1 -6.65 1.39 15.8 15.8 0 0 1 -7.71-1.8 12.69 12.69 0 0 1 -5.13-5.06 15.33 15.33 0 0 1 -1.82-7.57 15.92 15.92 0 0 1 1.76-7.59 12.65 12.65 0 0 1 4.95-5.12 14.61 14.61 0 0 1 7.42-1.83q6.24 0 9.71 3.8m-146.36-12.51a4.4 4.4 0 1 1 -4.4-4.4 4.4 4.4 0 0 1 4.4 4.4" fill="#333"/><path d="m33.91.8-28.31 11.72a1.89 1.89 0 0 0 0 3.51l28.45 11.27a10.46 10.46 0 0 0 7.78 0l28.42-11.3a1.89 1.89 0 0 0 0-3.51l-28.25-11.69a10.52 10.52 0 0 0 -8.06 0" fill="#fcb400"/><path d="m40.46 33.46v28.16a1.89 1.89 0 0 0 2.6 1.76l31.67-12.29a1.9 1.9 0 0 0 1.2-1.76v-28.16a1.9 1.9 0 0 0 -2.6-1.77l-31.67 12.3a1.89 1.89 0 0 0 -1.2 1.76" fill="#18bfff"/><path d="m33.06 34.91-9.4 4.54-.95.46-19.85 9.51a2 2 0 0 1 -2.86-1.71v-26.43a1.77 1.77 0 0 1 .61-1.28 2.15 2.15 0 0 1 .48-.36 2 2 0 0 1 1.72-.13l30.1 11.92a1.89 1.89 0 0 1 .15 3.47" fill="#f82b60"/><path d="m33.06 34.91-9.4 4.54-23.05-19.45a2.15 2.15 0 0 1 .48-.36 2 2 0 0 1 1.72-.13l30.1 11.92a1.89 1.89 0 0 1 .15 3.47"/></svg>