<svg viewBox="0 0 295.46 66.79" xmlns="http://www.w3.org/2000/svg"><path d="m144.07 17.33a21.89 21.89 0 0 0 -16.43 7.67v-25h-8.93v42.06a24.73 24.73 0 1 0 49.46 0c-0-13.66-10.44-24.73-24.1-24.73zm-.65 39.92a15.2 15.2 0 1 1 15.2-15.19 15.19 15.19 0 0 1 -15.2 15.19z"/><path d="m199.45 17.33a21.86 21.86 0 0 0 -16.45 7.67v-25h-8.94v42.06a24.73 24.73 0 0 0 49.46 0c.03-13.66-10.42-24.73-24.07-24.73zm-.65 39.92a15.2 15.2 0 1 1 15.2-15.19 15.2 15.2 0 0 1 -15.2 15.19z"/><path d="m68.42 46.38v-27.71h9.58v27.63c0 7.06 4.09 11.59 11 11.59s11-4.36 11-11.59v-27.63h9.66v27.71c0 12.81-7.76 20.39-20.65 20.39-12.57.02-20.59-7.83-20.59-20.39z"/><path d="m240.83 65.65h-9.59v-65.65h9.59z"/><path d="m295.09 45.86h-36.68c1.4 7.32 6.53 12.29 15.59 12.29a29.25 29.25 0 0 0 16-5.06l4 7.07a35.49 35.49 0 0 1 -20.31 6.53c-17.59 0-25.18-12.29-25.18-24.67 0-7.06 2.18-12.88 6.63-17.51s10.29-7 17.35-7c6.71 0 12.29 2.09 16.56 6.36s6.45 10 6.45 17.35a38.23 38.23 0 0 1 -.41 4.64zm-36.7-7.86h27.37c-.79-7.42-6.28-12.21-13.34-12.21-7.23.02-12.62 4.91-14.03 12.21z"/><path d="m38 17.33a21.89 21.89 0 0 0 -16.45 7.67v-25h-8.94v42.06a24.73 24.73 0 1 0 49.45 0c0-13.66-10.43-24.73-24.06-24.73zm-.65 39.92a15.2 15.2 0 1 1 15.2-15.19 15.19 15.19 0 0 1 -15.22 15.19z"/><circle cx="6.11" cy="60.66" fill="#00f" r="6.11"/></svg>