<svg viewBox="0 0 303.13 76.55" xmlns="http://www.w3.org/2000/svg"><path d="m97.89 30c0-5.5-5.27-11.26-14.44-11.26-10.28 0-21.56 7.57-23.29 22.67s7.68 22 17.21 22 14.51-3.72 19.63-8.7a8.67 8.67 0 0 0 -11.15-2.41 11.43 11.43 0 0 1 -5.85 1.44c-3.68 0-7.43-1.66-7.43-8.55 23.52-2.34 25.32-9.76 25.32-15.19zm-11.67.9c-.16 1.7-.83 4.6-12.76 6.22 2.51-9 7.32-9.64 9.53-9.64a3.13 3.13 0 0 1 3.26 3 3.38 3.38 0 0 1 0 .45zm-39.89 1.44-5.48 17.29-3.85-30.01c-8.62 0-13.26 6.17-15.67 12.69l-6.7 17.36-.94-17.18c-.51-8-7.8-12.84-13.69-12.84l7.12 43.42c9 0 13.92-6.17 16.47-12.69l5.65-14.76c.05.6 3.9 27.46 3.9 27.46 9.08 0 14-5.77 16.57-12.06l12.71-31.37c-9 0-13.67 6.14-16.1 12.69zm84.87-13.74c-5.59 0-9.86 3-13.47 7.53l3.27-26.13c-7.42 0-13.46 6.48-14.62 16.12l-5.59 46.62c4.28 0 8.82-1.25 11.25-4.41a12.46 12.46 0 0 0 10.28 5.08c12.53 0 21.12-14.61 21.12-28.32-.08-12.5-6.11-16.45-12.15-16.45zm-1.2 22.4c-1.31 7.64-5.55 12.84-9.64 12.84s-5.85-1.84-5.85-1.84c.79-6.7 1.27-10.81 2.77-14.35s5.07-9.19 8.78-9.19 5.29 4.86 4 12.54zm44.6-21.39h-8.74v-.45c.6-5.73 2-8.74 6.41-9.23 3-.3 4.39-1.88 4.72-3.62l1.15-6.05c-17.52-.11-23.06 7.49-24.48 19.09v.27h-.19c-2.85 0-6 3.24-6.53 7.34l-.18 1.51h5.85l-4.91 40.74-1.51 7.31h.6c8.21-.3 13.47-6.81 14.63-16.27l3.83-31.82h2.75c2.7 0 5.85-2.71 6.4-7.23zm45.45-.76c-10.09 0-19.61 7.46-22.53 19.17s1.5 25.57 16.35 25.57 23.35-14.43 23.35-26.44-8.05-18.3-17.16-18.3zm4.09 21.77c-.52 5.31-2.85 13.37-9.23 13.37s-5.51-9.41-4.89-13.9c.68-4.78 3.34-11.59 9.07-11.59 5.16 0 5.65 6.14 5 12.12zm62.94-8.32-5.48 17.28c-.15-1.35-3.86-30-3.86-30-8.62 0-13.24 6.17-15.66 12.69l-6.68 17.36c0-1.24-.94-17.18-.94-17.18-.54-8-7.82-12.84-13.74-12.84l7.12 43.39c9 0 13.91-6.17 16.47-12.69l5.62-14.76c0 .6 3.91 27.46 3.91 27.46 9.07 0 13.93-5.76 16.56-12l12.73-31.37c-8.93 0-13.66 6.13-16.06 12.69zm-104.2-32.05-7.35 59.54-1.53 7.34h.6c7.91-.12 13.54-7.08 14.59-15.86l4.24-34.15c1.3-10.4-4.89-16.87-10.55-16.87z" fill="#4353ff"/></svg>