<svg enable-background="new 0 0 955.3 955.3" viewBox="0 0 955.3 955.3" xmlns="http://www.w3.org/2000/svg"><g clip-rule="evenodd" fill-rule="evenodd"><path d="m106.9 635h24.4v-96.6l38.1 84.2c4.3 10.1 10.5 13.9 22.5 13.9s17.8-3.8 22.3-13.9l37.9-84.2v96.6h24.6v-96.6c0-9.4-3.8-13.9-11.6-16.3-18.6-5.6-31-.8-36.6 11.8l-37.3 83.3-36-83.3c-5.4-12.6-18-17.4-36.8-11.8-7.7 2.4-11.4 6.9-11.4 16.3zm190.1-78.6h24.6v53.1c-.2 3 .9 9.8 14.3 9.9 6.9.2 52.9 0 53.3 0v-63.4h24.6v86.9c0 21.4-26.5 26.1-38.8 26.3h-77.3v-16.3h77.3c15.8-1.7 13.9-9.6 13.9-12.2v-6.4h-52c-24.2-.2-39.8-10.9-40-23.1.1-1.1.6-54.4.1-54.8zm527.1-61.5c-15-.4-26.6 1.1-36.4 5.3-2.8 1.1-7.3 1.1-7.7 4.7 1.5 1.5 1.7 3.9 3 6 2.3 3.8 6.2 8.8 9.8 11.4 3.9 3 7.9 6 12 8.6 7.3 4.5 15.6 7.1 22.7 11.6 4.1 2.6 8.3 6 12.4 8.8 2.1 1.5 3.4 3.9 6 4.9v-.6c-1.3-1.7-1.7-4.1-3-6-1.9-1.9-3.8-3.6-5.6-5.4-5.4-7.3-12.2-13.7-19.5-18.9-6-4.1-19.1-9.8-21.6-16.7l-.4-.4c4.1-.4 9-1.9 12.9-3 6.4-1.7 12.2-1.3 18.8-3 3-.8 6-1.7 9-2.6v-1.7c-3.4-3.4-5.8-7.9-9.4-11.1-9.6-8.3-20.1-16.3-31-23.1-5.8-3.8-13.3-6.2-19.5-9.4-2.3-1.1-6-1.7-7.3-3.6-3.4-4.1-5.2-9.6-7.7-14.4-5.4-10.3-10.7-21.8-15.4-32.6-3.4-7.3-5.4-14.6-9.6-21.4-19.3-31.9-40.3-51.2-72.6-70.2-6.9-3.9-15.2-5.6-24-7.7-4.7-.2-9.4-.6-14.1-.8-3-1.3-6-4.9-8.6-6.6-10.7-6.8-38.3-21.4-46.1-2.1-5.1 12.2 7.5 24.2 11.8 30.4 3.2 4.3 7.3 9.2 9.6 14.1 1.3 3.2 1.7 6.6 3 9.9 3 8.3 5.8 17.4 9.8 25.1 2.1 3.9 4.3 8.1 6.9 11.6 1.5 2.1 4.1 3 4.7 6.4-2.6 3.8-2.8 9.4-4.3 14.1-6.7 21.2-4.1 47.5 5.4 63 3 4.7 10.1 15 19.7 11.1 8.4-3.4 6.6-14.1 9-23.4.6-2.3.2-3.8 1.3-5.3v.4c2.6 5.3 5.2 10.3 7.7 15.6 5.8 9.2 15.9 18.8 24.4 25.1 4.5 3.4 8.1 9.2 13.7 11.3v-.6h-.4c-1.1-1.7-2.8-2.4-4.3-3.8-3.4-3.4-7.1-7.5-9.8-11.3-7.9-10.5-14.8-22.1-21-34.1-3-5.8-5.6-12.2-8.1-18-1.1-2.3-1.1-5.6-3-6.8-2.8 4.1-6.9 7.7-9 12.8-3.6 8.1-3.9 18-5.2 28.3-.8.2-.4 0-.8.4-6-1.5-8.1-7.7-10.3-12.9-5.6-13.3-6.6-34.7-1.7-50.1 1.3-3.9 6.9-16.3 4.7-20.1-1.1-3.6-4.9-5.6-6.9-8.4-2.4-3.6-5.1-8.1-6.7-12-4.5-10.5-6.8-22.1-11.6-32.6-2.3-4.9-6.2-9.9-9.4-14.4-3.6-5.1-7.5-8.6-10.3-14.6-.9-2.1-2.3-5.4-.8-7.7.4-1.5 1.1-2.1 2.6-2.4 2.4-2.1 9.4.6 11.8 1.7 6.9 2.8 12.8 5.4 18.6 9.4 2.6 1.9 5.4 5.4 8.8 6.4h3.9c6 1.3 12.8.4 18.4 2.1 9.9 3.2 18.9 7.9 27 12.9 24.6 15.6 44.8 37.7 58.5 64.2 2.3 4.3 3.2 8.3 5.2 12.8 3.9 9.2 8.8 18.6 12.8 27.6 3.9 8.8 7.7 17.8 13.3 25.1 2.8 3.9 14.1 6 19.1 8.1 3.8 1.7 9.6 3.2 12.9 5.3 6.4 3.9 12.8 8.4 18.8 12.8 3.2 2 12.5 6.7 13.1 10.5z"/><path d="m632.8 331.9c-3.2 0-5.4.4-7.7.9v.4h.4c1.5 3 4.1 5.1 6 7.7 1.5 3 2.8 6 4.3 9l.4-.4c2.6-1.9 3.9-4.9 3.9-9.4-1.1-1.3-1.3-2.6-2.3-3.9-1.1-1.9-3.5-2.8-5-4.3zm-200.4 303.1h70.5c8.3 0 16.1-1.7 22.5-4.7 10.7-4.9 15.8-11.4 15.8-20.1v-18c0-6.9-5.8-13.5-17.5-18-6-2.3-13.5-3.6-20.8-3.6h-29.6c-9.9 0-14.6-3-15.9-9.6-.2-.8-.2-1.5-.2-2.3v-11.1c0-.6 0-1.3.2-2.1 1.3-5.1 3.9-6.4 12.6-7.3h72.2v-16.3h-68.7c-9.9 0-15.2.6-19.9 2.1-14.4 4.5-20.8 11.6-20.8 24.2v14.3c0 11.1 12.4 20.4 33.4 22.7 2.3.2 4.7.2 7.1.2h25.3c.9 0 1.9 0 2.6.2 7.7.8 11.1 2.1 13.3 4.9 1.5 1.5 1.9 2.8 1.9 4.5v14.3c0 1.7-1.1 3.9-3.4 5.8s-5.8 3.2-10.5 3.4c-.9 0-1.5.2-2.4.2h-67.7zm261.5-28.3c0 16.7 12.6 26.1 37.7 28 2.4.2 4.7.4 7.1.4h63.8v-16.3h-64.3c-14.3 0-19.7-3.6-19.7-12.2v-84.4h-24.6zm-137.1.7v-58.2c0-14.8 10.5-23.8 31-26.6 2.3-.2 4.5-.4 6.6-.4h46.5c2.4 0 4.5.2 6.9.4 20.5 2.8 30.8 11.8 30.8 26.6v58.2c0 12-4.3 18.4-14.4 22.7l24 21.8h-28.3l-19.5-17.6-19.7 1.1h-26.3c-4.8 0-9.6-.7-14.3-1.9-15.6-4.3-23.3-12.5-23.3-26.1zm26.4-1.3c0 .8.4 1.5.6 2.4 1.3 6.7 7.7 10.5 17.4 10.5h22.1l-20.3-18.4h28.3l17.8 16.1c3.4-1.9 5.4-4.5 6.2-7.9.2-.8.2-1.7.2-2.4v-55.7c0-.8 0-1.5-.2-2.3-1.3-6.4-7.7-9.9-17.3-9.9h-37c-10.9 0-18 4.7-18 12.2v55.4zm230.6 29.1h3.6v-13.7h4.7v-2.8h-13.1v2.8h4.9zm27.2 0h3.4v-16.5h-5.1l-4.1 11.3-4.5-11.3h-4.9v16.5h3.2v-12.6h.2l4.7 12.6h2.4l4.7-12.6z"/></g></svg>