<svg viewBox="0 0 623.62 214.88" xmlns="http://www.w3.org/2000/svg"><path d="m1.18 116.92h598.89v5.49h-598.89z" fill="#999392"/><path d="m1.18 116.92h598.89v5.49h-598.89z" fill="#7a7f83"/><path d="m259.61 50.89h39.74l-20.99-33.89-38.56 61.2h-17.57l46.9-73.44a11.11 11.11 0 0 1 9.18-4.76 10.87 10.87 0 0 1 9.06 4.66l47.07 73.56h-17.57l-8.28-13.67h-40.22l-8.76-13.64" fill="#dcdde3"/><path d="m441.89 64.53v-63.78h-14.89v70.05a7.25 7.25 0 0 0 2.22 5.13 7.56 7.56 0 0 0 5.43 2.27h67.86l8.83-13.67z" fill="#dcdde3"/><path d="m195.54 53.12a26.19 26.19 0 0 0 0-52.37h-65.17v77.47h14.88v-63.78h49.28a12.54 12.54 0 0 1 0 25.07h-42l44.47 38.71h21.62l-29.88-25.1z" fill="#dcdde3"/><path d="m38.73 78.21a38.72 38.72 0 1 1 0-77.44h45a38.73 38.73 0 0 1 0 77.46h-45m44-13.64a25.07 25.07 0 1 0 0-50.14h-43a25.07 25.07 0 0 0 0 50.14z" fill="#dcdde3"/><path d="m365.55 78.21a38.73 38.73 0 1 1 0-77.45h53.45l-8.81 13.67h-43.66a25.07 25.07 0 1 0 0 50.14h53.66l-8.73 13.64z" fill="#dcdde3"/><path d="m547.65 64.57a25 25 0 0 1 -24.08-18.25h63.6l8.83-13.64h-72.43a25 25 0 0 1 24.08-18.25h43.7l8.73-13.66h-53.41a38.72 38.72 0 1 0 0 77.44h45.93l8.76-13.64z" fill="#dcdde3"/><path d="m608.07 9a6.86 6.86 0 1 1 6.84 6.82 6.82 6.82 0 0 1 -6.84-6.82m6.84 8.7a8.71 8.71 0 1 0 0-17.41 8.71 8.71 0 1 0 0 17.41m-.8-13.84a8.48 8.48 0 0 1 2.59.25 2.75 2.75 0 0 1 1.84 2.72l-.1.81a2.44 2.44 0 0 1 -1.16 1.71l-.43.22 2.24 4h-2.19l-2-3.75h-1.28v3.75h-1.94v-9.68h2.42m.7 4.4 1.56-.62.31-.83-.76-1.21a4.82 4.82 0 0 0 -1.81-.18h-.48v2.84z" fill="#dcdde3"/><path d="m259.61 50.89h39.74l-20.99-33.89-38.56 61.2h-17.57l46.9-73.44a11.11 11.11 0 0 1 9.18-4.76 10.87 10.87 0 0 1 9.06 4.66l47.07 73.56h-17.57l-8.28-13.67h-40.22l-8.76-13.64" fill="#df2324"/><path d="m441.89 64.53v-63.78h-14.89v70.05a7.25 7.25 0 0 0 2.22 5.13 7.56 7.56 0 0 0 5.43 2.27h67.86l8.83-13.67z" fill="#df2324"/><path d="m195.54 53.12a26.19 26.19 0 0 0 0-52.37h-65.17v77.47h14.88v-63.78h49.28a12.54 12.54 0 0 1 0 25.07h-42l44.47 38.71h21.62l-29.88-25.1z" fill="#df2324"/><path d="m38.73 78.21a38.72 38.72 0 1 1 0-77.44h45a38.73 38.73 0 0 1 0 77.46h-45m44-13.64a25.07 25.07 0 1 0 0-50.14h-43a25.07 25.07 0 0 0 0 50.14z" fill="#df2324"/><path d="m365.55 78.21a38.73 38.73 0 1 1 0-77.45h53.45l-8.81 13.67h-43.66a25.07 25.07 0 1 0 0 50.14h53.66l-8.73 13.64z" fill="#df2324"/><path d="m547.65 64.57a25 25 0 0 1 -24.08-18.25h63.6l8.83-13.64h-72.43a25 25 0 0 1 24.08-18.25h43.7l8.73-13.66h-53.41a38.72 38.72 0 1 0 0 77.44h45.93l8.76-13.64z" fill="#df2324"/><path d="m608.07 9a6.86 6.86 0 1 1 6.84 6.82 6.82 6.82 0 0 1 -6.84-6.82m6.84 8.7a8.71 8.71 0 1 0 0-17.41 8.71 8.71 0 1 0 0 17.41m-.8-13.84a8.48 8.48 0 0 1 2.59.25 2.75 2.75 0 0 1 1.84 2.72l-.1.81a2.44 2.44 0 0 1 -1.16 1.71l-.43.22 2.24 4h-2.19l-2-3.75h-1.28v3.75h-1.94v-9.68h2.42m.7 4.4 1.56-.62.31-.83-.76-1.21a4.82 4.82 0 0 0 -1.81-.18h-.48v2.84z" fill="#df2324"/><g fill="#2a2422"><path d="m1.06 160.7h18.1c16.51-.13 26.78 8.1 26.78 26.53s-10.27 26.7-26.78 26.5h-18.1v-53m11.41 44.24h5.88c13.52.13 15.48-9.26 15.48-17.71s-2-17.85-15.48-17.7h-5.88z"/><path d="m81.44 213.74 19.2-53h13.52l18.42 53h-11.45l-3.83-11.22h-21l-4 11.22zm33-20-7.25-22.63h-.19l-7.78 22.63z"/><path d="m160.27 160.7h43.01v8.83h-15.8v44.2h-11.38v-44.2h-15.83z"/><path d="m232.29 213.74 19.18-53h13.53l18.42 53h-11.42l-3.82-11.22h-21l-4 11.22zm33-20-7.29-22.66h-.16l-7.8 22.63z"/><path d="m320.54 213.73v-53h19.91c9.46-.58 19.17 3.39 19.17 13.74 0 5.84-4.05 9.84-9.33 11.63v.12c6.71 1.36 11.71 6.01 11.71 13.78 0 10.52-13.21 14.35-21.34 13.72h-20.12m20.28-31.72c4.78 0 7.43-2 7.43-6.27s-2.65-6.22-7.43-6.22h-8.88v12.49zm0 22.92c5.36 0 9-.95 9-7s-3.68-7.08-9-7.08h-8.88v14.12z"/><path d="m396.66 213.74 19.18-53h13.52l18.44 53h-11.45l-3.82-11.22h-21l-4 11.22zm33-20-7.3-22.63h-.13l-7.77 22.63z"/><path d="m513.27 175.84c-.46-5.36-3.3-8-8.81-8-4.21 0-8.46 2.19-8.46 6.83 0 5.73 5.13 6.41 9.69 7.5 8.1 2 20 4.32 20 15 0 13.16-11.45 17.72-22.82 17.72-12.16 0-20.74-4.71-20.37-18.1h11.61c-.43 5.86 2.92 9.84 8.88 9.84 4.56 0 10.57-1.38 10.57-7 0-6.27-7.55-6.7-12.1-7.91-7.43-1.81-17.57-5.21-17.57-14.62 0-12.08 11.15-17.47 22.05-17.47 10.26 0 18.29 5.57 18.29 16.24h-10.96"/><path d="m564.34 160.7h35.56v8.83h-24.18v12.41h22.65v8.81h-22.65v14.19h24.99v8.79h-36.37z"/><path d="m1.06 160.7h18.1c16.51-.13 26.78 8.1 26.78 26.53s-10.27 26.7-26.78 26.5h-18.1v-53m11.41 44.24h5.88c13.52.13 15.48-9.26 15.48-17.71s-2-17.85-15.48-17.7h-5.88z"/><path d="m81.44 213.74 19.2-53h13.52l18.42 53h-11.45l-3.83-11.22h-21l-4 11.22zm33-20-7.25-22.63h-.19l-7.78 22.63z"/><path d="m160.27 160.7h43.01v8.83h-15.8v44.2h-11.38v-44.2h-15.83z"/><path d="m232.29 213.74 19.18-53h13.53l18.42 53h-11.42l-3.82-11.22h-21l-4 11.22zm33-20-7.29-22.66h-.16l-7.8 22.63z"/><path d="m320.54 213.73v-53h19.91c9.46-.58 19.17 3.39 19.17 13.74 0 5.84-4.05 9.84-9.33 11.63v.12c6.71 1.36 11.71 6.01 11.71 13.78 0 10.52-13.21 14.35-21.34 13.72h-20.12m20.28-31.72c4.78 0 7.43-2 7.43-6.27s-2.65-6.22-7.43-6.22h-8.88v12.49zm0 22.92c5.36 0 9-.95 9-7s-3.68-7.08-9-7.08h-8.88v14.12z"/><path d="m396.66 213.74 19.18-53h13.52l18.44 53h-11.45l-3.82-11.22h-21l-4 11.22zm33-20-7.3-22.63h-.13l-7.77 22.63z"/><path d="m513.27 175.84c-.46-5.36-3.3-8-8.81-8-4.21 0-8.46 2.19-8.46 6.83 0 5.73 5.13 6.41 9.69 7.5 8.1 2 20 4.32 20 15 0 13.16-11.45 17.72-22.82 17.72-12.16 0-20.74-4.71-20.37-18.1h11.61c-.43 5.86 2.92 9.84 8.88 9.84 4.56 0 10.57-1.38 10.57-7 0-6.27-7.55-6.7-12.1-7.91-7.43-1.81-17.57-5.21-17.57-14.62 0-12.08 11.15-17.47 22.05-17.47 10.26 0 18.29 5.57 18.29 16.24h-10.96"/><path d="m564.34 160.7h35.56v8.83h-24.18v12.41h22.65v8.81h-22.65v14.19h24.99v8.79h-36.37z"/></g></svg>