<svg viewBox="0 0 158.46 28.15" xmlns="http://www.w3.org/2000/svg"><g fill-rule="evenodd"><path d="m25.53 0c.86 0 1.66.46 2.06 1.2.39.71.37 1.55-.04 2.25v.02s-3.63 5.96-3.63 5.96c-.41.67-1.15 1.09-1.94 1.1h-.03s-4.13 0-4.13 0l1.72 3.87s.01.03.01.03c.4.72.39 1.58-.02 2.29v.02s-3.63 5.96-3.63 5.96c-.41.67-1.15 1.09-1.94 1.1h-.03s-5.07 0-5.07 0l-3.65 3.79c-.34.35-.81.54-1.29.54-.12 0-.24-.01-.36-.04-.59-.12-1.08-.52-1.31-1.07v-.02s-1.92-4.34-1.92-4.34v-.02s-.02-.02-.02-.02c-.4-.72-.39-1.58.02-2.29v-.02s3.52-5.78 3.52-5.78l-2.59-5.83.05-.02c-.11-.54-.02-1.1.26-1.59l.02-.03v-.02s3.62-5.94 3.62-5.94c.41-.67 1.15-1.1 1.94-1.1zm-19 23.78h-3.84s1.13 2.57 1.13 2.57c.02.05.05.08.09.09.04 0 .07 0 .1-.03s2.51-2.63 2.51-2.63zm10.99-8.85h-11.62s-.03 0-.04 0 3.19 7.18 3.19 7.18h4.89c.2 0 .39-.11.5-.28s3.62-5.98 3.62-5.98c.11-.18.12-.38.03-.57-.1-.21-.33-.35-.58-.35zm-12.82 1.48-2.88 4.77c-.11.19-.12.41-.02.61v.02s.02 0 .02 0v.02s.03.03.03.03l.03.03.02.03s.02.02.02.02h.01c.09.09.2.14.33.16h.03s.02 0 .02 0h.02s4.88 0 4.88 0l-2.51-5.71zm-.76-5.85 1.26 2.85h.02c.22-.08.45-.12.68-.12h.03s11.26 0 11.26 0l-1.21-2.73zm21.56-8.9h-11.66l3.19 7.18h4.89c.2 0 .4-.11.51-.28s3.62-5.98 3.62-5.98c.11-.18.12-.38.03-.57-.1-.21-.32-.35-.57-.35h-.02zm-13.45 0h-4.86c-.2 0-.39.11-.5.28s-3.61 5.98-3.61 5.98c-.11.18-.12.38-.03.57.1.21.32.35.56.35h.02s11.62 0 11.62 0l-3.18-7.18z" fill="#4b39ef"/><path d="m44.79 8.94v-3.66s-10.18 0-10.18 0v16.62h3.84v-6.1h5.02v-3.66s-5.02 0-5.02 0v-3.2zm2.17 12.96h3.6v-17.33h-3.6zm13.98-11.87v6.48c0 1.69-.91 2.44-2.23 2.44-1.15 0-2.09-.69-2.09-2.16v-6.76h-3.6v7.29c0 3.2 2.06 4.91 4.49 4.91 1.58 0 2.78-.57 3.43-1.45v1.12h3.6v-11.87zm13.26 3.42v-3.42h-2.47v-3.32l-3.6 1.07v2.26h-1.92v3.42h1.92v4.2c0 3.32 1.37 4.72 6.07 4.25v-3.23c-1.58.09-2.47 0-2.47-1.02v-4.2h2.47zm9.31 0v-3.42h-2.47v-3.32l-3.6 1.07v2.26h-1.92v3.42h1.92v4.2c0 3.32 1.37 4.72 6.07 4.25v-3.23c-1.58.09-2.47 0-2.47-1.02v-4.2h2.47zm5.49 3.94h8.51c.1-.45.14-.93.14-1.42 0-3.58-2.59-6.27-6.09-6.27-3.79 0-6.38 2.73-6.38 6.27s2.54 6.27 6.64 6.27c2.28 0 4.05-.83 5.23-2.44l-2.88-1.64c-.48.52-1.32.9-2.3.9-1.32 0-2.42-.43-2.88-1.66zm-.07-2.66c.34-1.21 1.25-1.88 2.61-1.88 1.08 0 2.16.5 2.54 1.88h-5.16zm14.37-2.58v-2.11h-3.6v11.87h3.6v-5.36c0-2.35 2.11-2.94 3.6-2.71v-4.04c-1.51 0-3.12.76-3.6 2.35zm15.57-3.21v-3.66s-10.18 0-10.18 0v16.62h3.84v-6.1h5.02v-3.66s-5.02 0-5.02 0v-3.2zm2.17 12.96h3.6v-17.33h-3.6zm12 .33c3.52 0 6.35-2.73 6.35-6.27s-2.83-6.27-6.35-6.27-6.36 2.73-6.36 6.27 2.83 6.27 6.36 6.27zm0-3.46c-1.56 0-2.76-1.12-2.76-2.8s1.2-2.8 2.76-2.8 2.76 1.12 2.76 2.8-1.2 2.8-2.76 2.8zm21.58-8.74-1.73 6.36-1.87-6.36h-3.36l-1.87 6.36-1.73-6.36h-3.84l3.84 11.87h3.36l1.92-6.34 1.92 6.34h3.36l3.84-11.87z" fill="#1c2634"/></g></svg>