<svg enable-background="new 0 0 600 600" height="246.78079" viewBox="0 0 1392.8243 246.78077" width="1392.8242" xmlns="http://www.w3.org/2000/svg"><path d="m0-10.000015h266.78079v266.78079h-266.78079z" fill="none"/><circle cx="143.83101" cy="123.22496" fill="#05a5cd" r="22.305986"/><g fill="none" stroke-miterlimit="10" stroke-width="10.67123"><path d="m143.83101 77.872205c29.94876 0 57.77058 4.297405 78.74786 11.51915 25.27485 8.701075 40.81481 21.890705 40.81481 33.833585 0 12.44577-16.46971 26.45709-43.61104 35.44982-20.52044 6.79892-47.52221 10.34753-75.95163 10.34753-29.14755 0-56.748653-3.33118-77.495326-10.42269-26.253948-8.97359-42.067358-23.16678-42.067358-35.37466 0-11.84595 14.837415-24.93333 39.757021-33.621489 21.05566-7.340476 49.564283-11.731246 79.805663-11.731246z" stroke="#05a5d1"/><path d="m104.35052 100.67928c14.96158-25.943526 32.58337-47.897871 49.31891-62.462306 20.16422-17.547964 39.35324-24.42057 49.69899-18.454515 10.78166 6.217286 14.69168 27.484582 8.92263 55.488623-4.36198 21.172618-14.7772 46.336248-28.97972 70.964128-14.56121 25.24992-31.23557 47.49543-47.74342 61.92516-20.88932 18.26026-41.084206 24.86796-51.659927 18.76936-10.261674-5.9181-14.186462-25.30905-9.263441-51.23658 4.159623-21.90717 14.598197-48.79642 29.705978-74.99387z" stroke="#05a5cd"/><path d="m104.38834 146.28101c-15.004573-25.91863-25.224544-52.14984-29.484614-73.92272-5.132874-26.232994-1.503777-46.29042 8.83224-52.273844 10.770773-6.235627 31.148884.997747 52.529134 19.981799 16.1651 14.352826 32.76432 35.942937 47.00808 60.547255 14.60357 25.22545 25.54913 50.78124 29.8066 72.28956 5.38751 27.21743 1.02664 48.01344-9.53885 54.12983-10.25194 5.93497-29.01187-.34858-49.01608-17.56262-16.90188-14.54443-34.98475-37.01717-50.13651-63.18926z" stroke="#05a5d1"/></g><text font-family="sans-serif" font-size="188.67041" letter-spacing="0" word-spacing="0" x="317.21265" y="186.71268"><tspan fill="#05a5d1" font-family="Helvetica Neue" font-size="188.677063" x="317.21265" y="186.71268">React Native</tspan></text></svg>