<svg fill="none" height="32" viewBox="0 0 128 32" width="128" xmlns="http://www.w3.org/2000/svg"><g fill="#000"><path d="m60.32 32c.3456 0 .64-.2865.64-.64v-14.88s.8 1.44 2.24 3.84l6.24 10.72c.2855.5984.919.96 1.44.96h4.32v-24h-4.32c-.2877 0-.64.23906-.64.64v15.04l-2.88-5.12-5.76-9.76c-.2803-.4974-.8834-.8-1.44-.8h-4.16v24z"/><path d="m116.16 14.72h2.08c.53 0 .96-.4298.96-.96v-4.16h4.48v5.12h4.32v3.84h-4.32v6.88c0 1.68.809 2.4 2.24 2.4h2.08v4.16h-2.72c-3.688 0-6.08-2.3886-6.08-6.4v-7.04h-3.04z"/><path d="m94.56 14.72v9.92c0 2.2406-.8412 4.1295-2.08 5.44s-2.9494 1.92-5.28 1.92-4.2012-.6095-5.44-1.92c-1.2178-1.3105-2.08-3.1994-2.08-5.44v-9.92h2.56c.5459 0 1.0831.0995 1.44.48.3569.3593.48.5704.48 1.12v8.32c0 1.2894.0731 2.0859.64 2.72.5669.613 1.2662.8 2.4.8 1.1548 0 1.6731-.187 2.24-.8.5669-.6341.64-1.4306.64-2.72v-8.32c0-.5496.1231-.8995.48-1.28.3136-.3343.6445-.3264 1.12-.32.0657.0009.2537 0 .32 0z"/><path d="m108.16 23.04 5.44-8.32h-4.16c-.524 0-.99.1881-1.28.64l-2.56 3.84-2.4-3.68c-.29-.4519-.916-.8-1.44-.8h-4l5.44 8.16-5.92 9.12h4.16c.52 0 .989-.514 1.28-.96l2.88-4.32 3.04 4.48c.291.446.76.8 1.28.8h4.16z"/></g><path d="m26.88 32h17.76c.5668.0001 1.1092-.1991 1.6-.48s.9967-.6335 1.28-1.12.4802-1.0385.48-1.6002-.1963-1.1134-.48-1.5997l-12-20.6401c-.2832-.4864-.6293-.83916-1.12-1.12s-1.1934-.48-1.76-.48-1.1093.19916-1.6.48-.8368.6336-1.12 1.12l-3.04 5.28-6.08-10.24038c-.2835-.48636-.6292-.998834-1.12-1.27962-.4908-.2807861-1.0333-.32-1.6-.32s-1.1092.0392139-1.6.32c-.4908.280786-.9965.79326-1.28 1.27962l-14.88 25.60048c-.2836834.4863-.3197531 1.038-.31999969 1.5997-.0002466.5617.03674339 1.1136.31999969 1.6001.283256.4865.78919.8392 1.28 1.1201s1.03324.4801 1.6.48h11.2c4.4379 0 7.668-1.9908 9.92-5.76l5.44-9.44 2.88-4.96 8.8 15.04h-11.68zm-12.64-5.12h-7.84l11.68-20.16 5.92 10.08-3.9214 6.836c-1.4955 2.4456-3.2006 3.244-5.8386 3.244z" fill="#00dc82"/></svg>